<svg t="1693962868116" class="icon" viewBox="0 0 1024 1024" version="1.1" xmlns="http://www.w3.org/2000/svg" p-id="7267" width="200" height="200"><path d="M467.09828172 510.80572868V124.04463146l237.25680725 255.13232054-237.25680725 131.62877668z m0 0M467.09828172 124.04463146l-198.86508163 260.41372182 198.86508163 126.3473754V124.04463146z m0 0" fill="#29C287" p-id="7268"></path><path d="M143.51087062 545.13483866l-89.78382509 116.39396564L464.25445012 922.34878799v-172.86433547L143.51087062 545.13483866z m0 0M465.87949607 747.85940658v172.8643339l495.02983-265.28886123-112.33134843-119.84719003-382.69848157 212.27171736z m0 0" fill="#706EE7" p-id="7269"></path><path d="M238.37296765 420.61564015l-64.18934083 83.28363972 291.89900019 185.45844748v-123.50354382L238.37296765 420.61564015z m0 0M466.28575796 565.85418353v123.50354382l351.41633413-188.09914811-80.43980815-85.72120947-270.97652598 150.31681376z m0 0" fill="#FFC107" p-id="7270"></path></svg>